<svg id="enwStBMhHCf1" xmlns="http://www.w3.org/2000/svg" xmlns:xlink="http://www.w3.org/1999/xlink" viewBox="0 0 250 250">
    <style>#enwStBMhHCf2_tr {animation: enwStBMhHCf2_tr__tr 1500ms linear infinite normal forwards}@keyframes enwStBMhHCf2_tr__tr { 0% {transform: translate(212.674542px,204.423486px) rotate(-56.108112deg);animation-timing-function: cubic-bezier(0.42,0,0.58,1)} 20% {transform: translate(212.674542px,204.423486px) rotate(-47.241215deg);animation-timing-function: cubic-bezier(0.42,0,0.58,1)} 40% {transform: translate(212.674542px,204.423486px) rotate(-64.793877deg);animation-timing-function: cubic-bezier(0.42,0,0.58,1)} 60% {transform: translate(212.674542px,204.423486px) rotate(-47.241215deg);animation-timing-function: cubic-bezier(0.42,0,0.58,1)} 80% {transform: translate(212.674542px,204.423486px) rotate(-64.793877deg);animation-timing-function: cubic-bezier(0.42,0,0.58,1)} 100% {transform: translate(212.674542px,204.423486px) rotate(-56.108112deg)}}</style>
    <g id="enwStBMhHCf2_tr" transform="translate(212.674542,204.423486) rotate(-56.108112)"><g transform="scale(-1,1) translate(-88.755437,-206.66687)"><path d="M87.660141,203.666885c-8.075775-.00003-15.668938-1.111068-22.568581-3.302307-6.94022-2.204117-13.360527-5.557754-19.082584-9.967727-5.646915-4.352112-10.567581-9.219727-14.625248-14.467637-4.071083-5.265304-7.383251-11.054885-9.844473-17.207946l-.001139-.002777-.001083-.002777L0.007144,104.577461c-2.947527-7.446388-3.716166-13.012497-2.351611-17.020889.776084-2.2798,2.094111-4.039246,3.917445-5.229469c1.744222-1.138611,3.913472-1.71592,6.447499-1.71592c5.97025,0,10.771305,1.816116,14.269778,5.397888c3.193473,3.269501,5.801612,7.437645,7.752029,12.388642l.002167.005531.002167.005524l8.991045,23.090698c.142681.099914.35958.242706.681453.436249v-94.344002c0-3.737278,1.385697-7.017918,4.118611-9.750862s6.013584-4.118611,9.750862-4.118611c3.756416,0,7.013527,1.3975,9.680805,4.153668c2.640671,2.728693,3.979614,5.997555,3.979614,9.715805v68.561142c0,.265221.062805.492416.375496.805077s.539833.375503.805054.375503.492393-.062805.805061-.375503.375496-.539856.375496-.805077v-85.283392c0-3.737278,1.385696-7.017917,4.118614-9.750861s6.013558-4.118611,9.750832-4.118611s7.017998,1.38575,9.750862,4.118638s4.118607,6.013556,4.118607,9.750834v85.283392c0,.265221.062812.492416.375503.805077s.539833.375503.805054.375503.492393-.062805.805061-.375503.375496-.539856.375496-.805077v-72.741726c0-3.737278,1.385696-7.017916,4.118584-9.750833s6.013641-4.118611,9.750862-4.118611s7.017891,1.385695,9.750831,4.118611s4.118638,6.013584,4.118638,9.750833v72.741726c0,.265221.062805.492416.375503.805077s.539833.375503.805061.375503.492386-.062805.805054-.375503.375488-.539856.375488-.805077v-47.658337c0-3.737278,1.385697-7.017917,4.118622-9.750862s6.01355-4.11861,9.750824-4.11861s7.017929,1.385696,9.75087,4.11861s4.118607,6.013584,4.118607,9.750862v87.373661c0,4.932038-.418839,9.710068-1.244858,14.20134-.830551,4.515778-2.095703,8.867111-3.76033,12.933136-1.668534,4.075607-3.783677,7.975281-6.286667,11.590729-2.497818,3.60794-5.449585,7.030517-8.773316,10.172638-3.314026,3.132934-6.88649,5.914657-10.618103,8.267914-3.736809,2.356506-7.735306,4.347717-11.884445,5.918411-4.140366,1.567367-8.543922,2.758728-13.08831,3.541-4.523689.778702-9.312332,1.173538-14.232918,1.173538Z" fill="#795548"/><path d="M87.660149,200.66687c19.091186,0,35.012153-6.026962,47.76284-18.080902s19.126099-27.626572,19.126099-46.717789v-87.37368c0-2.926376-1.079972-5.469562-3.239945-7.629532s-4.703155-3.239906-7.629532-3.239906-5.469559,1.079968-7.629501,3.239906-3.239929,4.703156-3.239929,7.629532v47.658371c0,1.114815-.418061,2.090286-1.254197,2.926377s-1.811553,1.254188-2.926361,1.254188-2.090286-.41806-2.926414-1.254188-1.254158-1.811562-1.254158-2.926377v-72.741747c0-2.926376-1.079964-5.469532-3.239937-7.6295s-4.703125-3.239938-7.629532-3.239938-5.469559,1.08-7.629493,3.239938-3.239937,4.703124-3.239937,7.6295v72.741747c0,1.114815-.418068,2.090286-1.254158,2.926377s-1.811592,1.254188-2.926407,1.254188-2.090286-.41806-2.926407-1.254188-1.254158-1.811562-1.254158-2.926377v-85.283403c0-2.926407-1.079971-5.469563-3.239937-7.629532s-4.703125-3.239906-7.629532-3.239937-5.469528,1.079968-7.629501,3.239937-3.239937,4.703125-3.239937,7.629532v85.283403c0,1.114815-.41806,2.090286-1.254158,2.926377s-1.811592,1.254188-2.926399,1.254188-2.090286-.41806-2.926407-1.254188-1.254158-1.811562-1.254158-2.926377v-68.561153c0-2.926407-1.045128-5.469595-3.135407-7.629532s-4.598625-3.239937-7.525001-3.239937-5.469593,1.08-7.629532,3.239937-3.239937,4.703125-3.239937,7.629532v97.825062h-2.926376c-2.090279-1.114815-3.205094-1.881249-3.344467-2.299279L27.251055,99.497307c-1.811564-4.598625-4.180563-8.395935-7.106938-11.392029s-6.967625-4.494095-12.123625-4.494095c-3.901844,0-6.410188,1.637375-7.525,4.912155s-.348407,8.2566,2.299281,14.945504l21.529905,54.138244c4.737938,11.84494,12.576502,21.982788,23.515627,30.413574s24.212406,12.64621,39.819844,12.64621m0,6c-16.890656,0-31.520283-4.67456-43.482502-13.893844-11.750061-9.055771-20.303873-20.137589-25.423844-32.937592L-2.78054,105.686058c-3.267312-8.25428-4.030031-14.319405-2.403874-19.096283c1.942468-5.706024,6.755468-8.978592,13.204906-8.978592c6.808531,0,12.331626,2.120186,16.415875,6.301659c3.474344,3.557091,6.29953,8.060562,8.397156,13.385345l3.885593,9.978897v-79.685367c0-4.497595,1.728031-8.602907,4.99728-11.872188s7.374596-4.997282,11.872189-4.997282c4.535374,0,8.628376,1.752282,11.836594,5.067375.42163.435682.816856.886197,1.184936,1.350107v-6.270262c0-4.497595,1.728035-8.602907,4.997284-11.872188s7.374596-4.997281,11.872154-4.997281c4.497689.000062,8.603035,1.728093,11.872185,4.997312c3.269257,3.26925,4.997284,7.374562,4.997284,11.872157v2.185483c.418182-.522955.871132-1.028704,1.358406-1.515984c3.269279-3.26925,7.374596-4.997281,11.872154-4.997281s8.602844,1.728031,11.872162,4.997281s4.997307,7.374595,4.997307,11.872157v14.727171c.418182-.522957.871139-1.028705,1.358414-1.515983c3.269241-3.269219,7.374557-4.997252,11.872146-4.997252s8.602875,1.728033,11.872162,4.997252s4.997315,7.374591,4.997315,11.872188v87.37368c0,20.717011-7.066849,37.902069-21.004258,51.077881-13.842148,13.085785-31.298683,19.72081-51.884681,19.72081Z" fill="#543c33"/></g></g></svg>